<svg xmlns="http://www.w3.org/2000/svg" width="1000" height="800" viewBox="0 0 1000 800"><defs><linearGradient id="bg" x2="1" y2="1"><stop stop-color="#eaf2ff"/><stop offset=".5" stop-color="#f0eaff"/><stop offset="1" stop-color="#dceaff"/></linearGradient><linearGradient id="blue" x2="0" y2="1"><stop stop-color="#64b5ff"/><stop offset="1" stop-color="#0071e3"/></linearGradient><filter id="shadow" x="-50%" y="-50%" width="200%" height="200%"><feDropShadow dx="0" dy="22" stdDeviation="24" flood-color="#2f4588" flood-opacity=".18"/></filter></defs><rect width="1000" height="800" rx="44" fill="url(#bg)"/><circle cx="830" cy="110" r="220" fill="#fff" opacity=".4"/><circle cx="90" cy="720" r="250" fill="#b5ccff" opacity=".3"/><g filter="url(#shadow)" transform="translate(135 160) rotate(-5 360 230)"><rect width="730" height="470" rx="24" fill="#fff"/><rect x="0" y="0" width="730" height="44" rx="24" fill="#f7f8fc"/><circle cx="24" cy="22" r="5" fill="#ff938e"/><circle cx="42" cy="22" r="5" fill="#ffd284"/><circle cx="60" cy="22" r="5" fill="#8ed6b0"/><text x="36" y="91" font-family="Arial,sans-serif" font-size="25" fill="#1d1d1f" font-weight="700">A clearer view of business.</text><text x="36" y="118" font-family="Arial,sans-serif" font-size="13" fill="#86868b">Illustrative workspace · sample data</text><rect x="36" y="147" width="202" height="90" rx="14" fill="#f5f7fb"/><rect x="254" y="147" width="202" height="90" rx="14" fill="#f5f7fb"/><rect x="472" y="147" width="222" height="90" rx="14" fill="#edf5ff"/><g font-family="Arial,sans-serif" font-size="12" fill="#86868b"><text x="54" y="174">SALES</text><text x="272" y="174">COLLECTIONS</text><text x="490" y="174">PRODUCTS</text></g><g font-family="Arial,sans-serif" font-size="25" font-weight="700" fill="#1d1d1f"><text x="54" y="214">124,800</text><text x="272" y="214">106,400</text><text x="490" y="214">248</text></g><path d="M36 410H455 M36 365H455 M36 320H455 M36 275H455" stroke="#eef0f5"/><g fill="url(#blue)"><rect x="60" y="359" width="30" height="51" rx="6"/><rect x="117" y="335" width="30" height="75" rx="6"/><rect x="174" y="349" width="30" height="61" rx="6"/><rect x="231" y="302" width="30" height="108" rx="6"/><rect x="288" y="310" width="30" height="100" rx="6"/><rect x="345" y="279" width="30" height="131" rx="6"/><rect x="402" y="257" width="30" height="153" rx="6"/></g><circle cx="583" cy="338" r="68" fill="none" stroke="#eef2fa" stroke-width="16"/><circle cx="583" cy="338" r="68" fill="none" stroke="#0071e3" stroke-width="16" stroke-dasharray="365 427" transform="rotate(-90 583 338)" stroke-linecap="round"/><text x="583" y="341" text-anchor="middle" font-family="Arial,sans-serif" font-size="28" font-weight="700" fill="#1d1d1f">248</text><text x="583" y="364" text-anchor="middle" font-family="Arial,sans-serif" font-size="12" fill="#86868b">Products in view</text></g><g filter="url(#shadow)" transform="translate(90 540)"><rect width="270" height="82" rx="20" fill="#fff"/><circle cx="41" cy="41" r="20" fill="#e7f7ee"/><path d="m32 41 6 6 13-14" fill="none" stroke="#228650" stroke-width="3" stroke-linecap="round"/><text x="77" y="36" font-family="Arial,sans-serif" font-size="16" font-weight="700" fill="#1d1d1f">Room for great work.</text><text x="77" y="58" font-family="Arial,sans-serif" font-size="12" fill="#86868b">Everything. Simply together.</text></g></svg>